G04*
G04 #@! TF.GenerationSoftware,Altium Limited,Altium Designer,24.10.1 (45)*
G04*
G04 Layer_Physical_Order=1*
G04 Layer_Color=255*
%FSLAX44Y44*%
%MOMM*%
G71*
G04*
G04 #@! TF.SameCoordinates,6965692F-E9A8-49B1-8EC0-743354621B2D*
G04*
G04*
G04 #@! TF.FilePolarity,Positive*
G04*
G01*
G75*
%ADD18R,3.8100X2.0800*%
%ADD19R,8.8900X11.4300*%
%ADD30C,0.5080*%
%ADD31C,1.3000*%
%ADD32C,2.3000*%
%ADD33R,1.1000X1.1000*%
%ADD34C,1.1000*%
%ADD35C,1.6500*%
%ADD36R,1.2000X1.2000*%
%ADD37C,1.2000*%
%ADD38C,1.2700*%
G36*
X871117Y1085480D02*
X875740Y1083566D01*
X879900Y1080786D01*
X881669Y1079017D01*
X881669Y1079017D01*
X888879Y1071807D01*
X891658Y1067647D01*
X893573Y1063024D01*
X894549Y1058117D01*
Y1043037D01*
X893960Y1040075D01*
X892804Y1037285D01*
X891127Y1034774D01*
X885357Y1029005D01*
X884647Y1028530D01*
X883858Y1028203D01*
X883020Y1028037D01*
X765009D01*
X763807Y1027978D01*
X761449Y1027508D01*
X759228Y1026588D01*
X757229Y1025253D01*
X756337Y1024444D01*
X751039Y1019147D01*
Y988667D01*
X751083Y987765D01*
X751435Y985996D01*
X752125Y984331D01*
X753127Y982831D01*
X753733Y982162D01*
X775350Y960546D01*
X777197Y958872D01*
X781337Y956106D01*
X785937Y954200D01*
X790820Y953229D01*
X793310Y953107D01*
X985494D01*
X989683Y952273D01*
X993628Y950639D01*
X997179Y948266D01*
X998689Y946757D01*
X999897Y945549D01*
X1001795Y942708D01*
X1003103Y939551D01*
X1003769Y936201D01*
Y934492D01*
Y881987D01*
X996149Y871827D01*
X965489Y841166D01*
X963720Y839397D01*
X959559Y836617D01*
X954937Y834703D01*
X950030Y833727D01*
X902169D01*
X901267Y833682D01*
X899771Y833384D01*
X899499Y833331D01*
X899499Y833330D01*
X897833Y832640D01*
X897833Y832640D01*
X896334Y831639D01*
X895665Y831032D01*
X895665Y831032D01*
Y831032D01*
X885479Y820846D01*
X883805Y818999D01*
X881038Y814859D01*
X879133Y810259D01*
X878161Y805375D01*
X878039Y802886D01*
Y718157D01*
X878098Y716954D01*
X878567Y714596D01*
X879487Y712375D01*
X879488Y712374D01*
X880823Y710376D01*
X881631Y709485D01*
X881631Y709484D01*
X881631Y709484D01*
X888199Y702916D01*
X889145Y702059D01*
X891265Y700642D01*
X893621Y699667D01*
X896122Y699169D01*
X897397Y699107D01*
X1019880D01*
X1024787Y698130D01*
X1029409Y696216D01*
X1033570Y693436D01*
X1035339Y691667D01*
X1035339Y691667D01*
X1054569Y672437D01*
Y595328D01*
Y592826D01*
X1053593Y587919D01*
X1051678Y583296D01*
X1050248Y581156D01*
X1047130Y577367D01*
X1047130D01*
X1047130Y577367D01*
X1027295Y557533D01*
X1025875Y556584D01*
X1024297Y555930D01*
X1022621Y555597D01*
X868240D01*
X865751Y555474D01*
X860867Y554503D01*
X856267Y552597D01*
X854116Y551160D01*
X852126Y549831D01*
X850280Y548157D01*
X850280Y548157D01*
X850278Y548156D01*
X848649Y546526D01*
X846977Y544682D01*
X846975Y544679D01*
X846853Y544497D01*
X844208Y540539D01*
X842303Y535939D01*
X841331Y531055D01*
X841209Y528565D01*
Y486108D01*
Y483606D01*
X840233Y478699D01*
X838318Y474076D01*
X836888Y471936D01*
X833770Y468147D01*
D01*
X830077Y464798D01*
X828270Y463591D01*
X825114Y462283D01*
X821763Y461617D01*
X641943D01*
X637204Y462559D01*
X632741Y464408D01*
X628723Y467093D01*
X627015Y468801D01*
Y468801D01*
X615149Y480667D01*
X613639Y482176D01*
X611267Y485727D01*
X609632Y489673D01*
X608799Y493862D01*
Y495997D01*
Y1032756D01*
Y1035257D01*
X609775Y1040164D01*
X611690Y1044787D01*
X614470Y1048947D01*
X616239Y1050716D01*
Y1050716D01*
X644540Y1079017D01*
X646309Y1080786D01*
X650469Y1083566D01*
X655091Y1085480D01*
X659998Y1086457D01*
X866210D01*
X871117Y1085480D01*
D02*
G37*
%LPC*%
G36*
X820420Y916913D02*
Y909320D01*
X828013D01*
X827434Y911481D01*
X826264Y913509D01*
X824609Y915164D01*
X822581Y916334D01*
X820420Y916913D01*
D02*
G37*
G36*
X817880D02*
X815719Y916334D01*
X813691Y915164D01*
X812036Y913509D01*
X810866Y911481D01*
X810287Y909320D01*
X817880D01*
Y916913D01*
D02*
G37*
G36*
X828013Y906780D02*
X810287D01*
X810866Y904619D01*
X812036Y902591D01*
X813691Y900936D01*
X813970Y900775D01*
Y833120D01*
X772160D01*
Y774700D01*
X819150D01*
X866140D01*
Y833120D01*
X824330D01*
Y900775D01*
X824609Y900936D01*
X826264Y902591D01*
X827434Y904619D01*
X828013Y906780D01*
D02*
G37*
G36*
X866140Y772160D02*
X820420D01*
Y713740D01*
X866140D01*
Y772160D01*
D02*
G37*
G36*
X817880D02*
X772160D01*
Y713740D01*
X817880D01*
Y772160D01*
D02*
G37*
%LPD*%
D18*
X933450Y798830D02*
D03*
Y748030D02*
D03*
D19*
X819150Y773430D02*
D03*
D30*
Y908050D01*
X1366520Y831850D02*
X1386840Y811530D01*
Y743420D02*
X1397000Y733260D01*
X1386840Y743420D02*
Y811530D01*
X960120Y748030D02*
X1332230D01*
X933450D02*
X960120D01*
X1440180Y485140D02*
X1452372Y497332D01*
Y822198D01*
X1442720Y831850D02*
X1452372Y822198D01*
X1384808Y721068D02*
X1397000Y733260D01*
X1384808Y565912D02*
Y721068D01*
Y565912D02*
X1389380Y561340D01*
X1568450Y765302D02*
Y811530D01*
Y765302D02*
X1570990Y762762D01*
Y713740D02*
Y762762D01*
X933450Y798830D02*
X960120D01*
X1103630Y643890D02*
X1115314Y655574D01*
X1304290D01*
X1376934Y582930D01*
Y497586D02*
Y582930D01*
Y497586D02*
X1389380Y485140D01*
X1417320Y831850D02*
X1425956Y823214D01*
Y476250D02*
Y823214D01*
X1418082Y468376D02*
X1425956Y476250D01*
X1175004Y468376D02*
X1418082D01*
X1129030Y514350D02*
X1175004Y468376D01*
X1154430Y942340D02*
Y996950D01*
X960120Y748030D02*
X1154430Y942340D01*
X1573530Y554990D02*
X1584452Y565912D01*
Y1060958D01*
X1564640Y1080770D02*
X1584452Y1060958D01*
X1442720Y831850D02*
X1489456Y878586D01*
Y980186D01*
X1564640Y1055370D01*
X1414780Y561340D02*
Y791718D01*
X1404620Y801878D02*
X1414780Y791718D01*
X1404620Y801878D02*
Y895350D01*
X1391920Y908050D02*
X1404620Y895350D01*
X1363980Y485140D02*
Y561340D01*
D31*
X1170610Y869950D02*
D03*
X1070610D02*
D03*
X1103630Y643890D02*
D03*
X1203630D02*
D03*
D32*
X1052830Y996950D02*
D03*
X1078230D02*
D03*
X1103630D02*
D03*
X1129030D02*
D03*
X1154430D02*
D03*
X1179830D02*
D03*
X1205230D02*
D03*
X1230630D02*
D03*
X783590D02*
D03*
X808990D02*
D03*
X834390D02*
D03*
X859790D02*
D03*
X885190D02*
D03*
X910590D02*
D03*
X935990D02*
D03*
X961390D02*
D03*
X986790D02*
D03*
X1012190D02*
D03*
X1230630Y514350D02*
D03*
X1205230D02*
D03*
X1179830D02*
D03*
X1154430D02*
D03*
X1129030D02*
D03*
X1103630D02*
D03*
X1052830D02*
D03*
X1027430D02*
D03*
X1002030D02*
D03*
X976630D02*
D03*
X951230D02*
D03*
X925830D02*
D03*
X900430D02*
D03*
X875030D02*
D03*
D33*
X1564640Y1080770D02*
D03*
D34*
Y1055370D02*
D03*
Y1029970D02*
D03*
Y1004570D02*
D03*
Y979170D02*
D03*
Y953770D02*
D03*
D35*
X1570990Y662940D02*
D03*
Y713740D02*
D03*
X1568450Y811530D02*
D03*
Y862330D02*
D03*
X1573530Y504190D02*
D03*
Y554990D02*
D03*
D36*
X1397000Y683260D02*
D03*
X1442720Y908050D02*
D03*
X1440180Y561340D02*
D03*
D37*
X1397000Y733260D02*
D03*
X1442720Y831850D02*
D03*
X1417320D02*
D03*
X1391920D02*
D03*
X1366520D02*
D03*
Y908050D02*
D03*
X1391920D02*
D03*
X1417320D02*
D03*
X1440180Y485140D02*
D03*
X1414780D02*
D03*
X1389380D02*
D03*
X1363980D02*
D03*
Y561340D02*
D03*
X1389380D02*
D03*
X1414780D02*
D03*
D38*
X1041400Y673100D02*
D03*
X1047750Y660400D02*
D03*
X1041400Y647700D02*
D03*
X1047750Y635000D02*
D03*
X1041400Y622300D02*
D03*
X1047750Y609600D02*
D03*
X1041400Y596900D02*
D03*
X1028700Y673100D02*
D03*
X1035050Y660400D02*
D03*
X1028700Y647700D02*
D03*
X1035050Y635000D02*
D03*
X1028700Y622300D02*
D03*
X1035050Y609600D02*
D03*
X1028700Y596900D02*
D03*
X1035050Y584200D02*
D03*
X1028700Y571500D02*
D03*
X1022350Y685800D02*
D03*
X1016000Y673100D02*
D03*
X1022350Y660400D02*
D03*
X1016000Y647700D02*
D03*
X1022350Y635000D02*
D03*
X1016000Y622300D02*
D03*
X1022350Y609600D02*
D03*
X1016000Y596900D02*
D03*
X1022350Y584200D02*
D03*
X1016000Y571500D02*
D03*
X1009650Y685800D02*
D03*
X1003300Y673100D02*
D03*
X1009650Y660400D02*
D03*
X1003300Y647700D02*
D03*
X1009650Y635000D02*
D03*
X1003300Y622300D02*
D03*
X1009650Y609600D02*
D03*
X1003300Y596900D02*
D03*
X1009650Y584200D02*
D03*
X1003300Y571500D02*
D03*
X990600Y901700D02*
D03*
X996950Y889000D02*
D03*
X990600Y876300D02*
D03*
X996950Y685800D02*
D03*
X990600Y673100D02*
D03*
X996950Y660400D02*
D03*
X990600Y647700D02*
D03*
X996950Y635000D02*
D03*
X990600Y622300D02*
D03*
X996950Y609600D02*
D03*
X990600Y596900D02*
D03*
X996950Y584200D02*
D03*
X990600Y571500D02*
D03*
X984250Y939800D02*
D03*
X977900Y901700D02*
D03*
X984250Y889000D02*
D03*
X977900Y876300D02*
D03*
X984250Y685800D02*
D03*
X977900Y673100D02*
D03*
X984250Y660400D02*
D03*
X977900Y647700D02*
D03*
X984250Y635000D02*
D03*
X977900Y622300D02*
D03*
X984250Y609600D02*
D03*
X977900Y596900D02*
D03*
X984250Y584200D02*
D03*
X977900Y571500D02*
D03*
X971550Y939800D02*
D03*
X965200Y901700D02*
D03*
X971550Y889000D02*
D03*
X965200Y876300D02*
D03*
X971550Y863600D02*
D03*
X965200Y850900D02*
D03*
X971550Y685800D02*
D03*
X965200Y673100D02*
D03*
X971550Y660400D02*
D03*
X965200Y647700D02*
D03*
X971550Y635000D02*
D03*
X965200Y622300D02*
D03*
X971550Y609600D02*
D03*
X965200Y596900D02*
D03*
X971550Y584200D02*
D03*
X965200Y571500D02*
D03*
X958850Y939800D02*
D03*
X952500Y901700D02*
D03*
X958850Y889000D02*
D03*
X952500Y876300D02*
D03*
X958850Y863600D02*
D03*
X952500Y850900D02*
D03*
X958850Y685800D02*
D03*
X952500Y673100D02*
D03*
X958850Y660400D02*
D03*
X952500Y647700D02*
D03*
X958850Y635000D02*
D03*
X952500Y622300D02*
D03*
X958850Y609600D02*
D03*
X952500Y596900D02*
D03*
X958850Y584200D02*
D03*
X952500Y571500D02*
D03*
X946150Y939800D02*
D03*
X939800Y901700D02*
D03*
X946150Y889000D02*
D03*
X939800Y876300D02*
D03*
X946150Y863600D02*
D03*
X939800Y850900D02*
D03*
X946150Y685800D02*
D03*
X939800Y673100D02*
D03*
X946150Y660400D02*
D03*
X939800Y647700D02*
D03*
X946150Y635000D02*
D03*
X939800Y622300D02*
D03*
X946150Y609600D02*
D03*
X939800Y596900D02*
D03*
X946150Y584200D02*
D03*
X939800Y571500D02*
D03*
X933450Y939800D02*
D03*
X927100Y901700D02*
D03*
X933450Y889000D02*
D03*
X927100Y876300D02*
D03*
X933450Y863600D02*
D03*
X927100Y850900D02*
D03*
X933450Y685800D02*
D03*
X927100Y673100D02*
D03*
X933450Y660400D02*
D03*
X927100Y647700D02*
D03*
X933450Y635000D02*
D03*
X927100Y622300D02*
D03*
X933450Y609600D02*
D03*
X927100Y596900D02*
D03*
X933450Y584200D02*
D03*
X927100Y571500D02*
D03*
X920750Y939800D02*
D03*
X914400Y901700D02*
D03*
X920750Y889000D02*
D03*
X914400Y876300D02*
D03*
X920750Y863600D02*
D03*
X914400Y850900D02*
D03*
X920750Y685800D02*
D03*
X914400Y673100D02*
D03*
X920750Y660400D02*
D03*
X914400Y647700D02*
D03*
X920750Y635000D02*
D03*
X914400Y622300D02*
D03*
X920750Y609600D02*
D03*
X914400Y596900D02*
D03*
X920750Y584200D02*
D03*
X914400Y571500D02*
D03*
X908050Y939800D02*
D03*
X901700Y901700D02*
D03*
X908050Y889000D02*
D03*
X901700Y876300D02*
D03*
X908050Y863600D02*
D03*
X901700Y850900D02*
D03*
X908050Y685800D02*
D03*
X901700Y673100D02*
D03*
X908050Y660400D02*
D03*
X901700Y647700D02*
D03*
X908050Y635000D02*
D03*
X901700Y622300D02*
D03*
X908050Y609600D02*
D03*
X901700Y596900D02*
D03*
X908050Y584200D02*
D03*
X901700Y571500D02*
D03*
X895350Y939800D02*
D03*
X889000Y901700D02*
D03*
X895350Y889000D02*
D03*
X889000Y876300D02*
D03*
X895350Y863600D02*
D03*
X889000Y850900D02*
D03*
X895350Y685800D02*
D03*
X889000Y673100D02*
D03*
X895350Y660400D02*
D03*
X889000Y647700D02*
D03*
X895350Y635000D02*
D03*
X889000Y622300D02*
D03*
X895350Y609600D02*
D03*
X889000Y596900D02*
D03*
X895350Y584200D02*
D03*
X889000Y571500D02*
D03*
X882650Y1066800D02*
D03*
X876300Y1054100D02*
D03*
X882650Y1041400D02*
D03*
Y939800D02*
D03*
X876300Y901700D02*
D03*
X882650Y889000D02*
D03*
X876300Y876300D02*
D03*
X882650Y863600D02*
D03*
X876300Y850900D02*
D03*
X882650Y838200D02*
D03*
X876300Y825500D02*
D03*
Y698500D02*
D03*
X882650Y685800D02*
D03*
X876300Y673100D02*
D03*
X882650Y660400D02*
D03*
X876300Y647700D02*
D03*
X882650Y635000D02*
D03*
X876300Y622300D02*
D03*
X882650Y609600D02*
D03*
X876300Y596900D02*
D03*
X882650Y584200D02*
D03*
X876300Y571500D02*
D03*
X863600Y1079500D02*
D03*
X869950Y1066800D02*
D03*
X863600Y1054100D02*
D03*
X869950Y1041400D02*
D03*
Y939800D02*
D03*
X863600Y901700D02*
D03*
X869950Y889000D02*
D03*
X863600Y876300D02*
D03*
X869950Y863600D02*
D03*
X863600Y850900D02*
D03*
Y698500D02*
D03*
X869950Y685800D02*
D03*
X863600Y673100D02*
D03*
X869950Y660400D02*
D03*
X863600Y647700D02*
D03*
X869950Y635000D02*
D03*
X863600Y622300D02*
D03*
X869950Y609600D02*
D03*
X863600Y596900D02*
D03*
X869950Y584200D02*
D03*
X863600Y571500D02*
D03*
X850900Y1079500D02*
D03*
X857250Y1066800D02*
D03*
X850900Y1054100D02*
D03*
X857250Y1041400D02*
D03*
Y939800D02*
D03*
X850900Y901700D02*
D03*
X857250Y889000D02*
D03*
X850900Y876300D02*
D03*
X857250Y863600D02*
D03*
X850900Y850900D02*
D03*
Y698500D02*
D03*
X857250Y685800D02*
D03*
X850900Y673100D02*
D03*
X857250Y660400D02*
D03*
X850900Y647700D02*
D03*
X857250Y635000D02*
D03*
X850900Y622300D02*
D03*
X857250Y609600D02*
D03*
X850900Y596900D02*
D03*
X857250Y584200D02*
D03*
X850900Y571500D02*
D03*
X838200Y1079500D02*
D03*
X844550Y1066800D02*
D03*
X838200Y1054100D02*
D03*
X844550Y1041400D02*
D03*
Y939800D02*
D03*
X838200Y901700D02*
D03*
X844550Y889000D02*
D03*
X838200Y876300D02*
D03*
X844550Y863600D02*
D03*
X838200Y850900D02*
D03*
Y698500D02*
D03*
X844550Y685800D02*
D03*
X838200Y673100D02*
D03*
X844550Y660400D02*
D03*
X838200Y647700D02*
D03*
X844550Y635000D02*
D03*
X838200Y622300D02*
D03*
X844550Y609600D02*
D03*
X838200Y596900D02*
D03*
X844550Y584200D02*
D03*
X838200Y571500D02*
D03*
X844550Y558800D02*
D03*
X838200Y546100D02*
D03*
X825500Y1079500D02*
D03*
X831850Y1066800D02*
D03*
X825500Y1054100D02*
D03*
X831850Y1041400D02*
D03*
Y939800D02*
D03*
Y889000D02*
D03*
Y863600D02*
D03*
X825500Y698500D02*
D03*
X831850Y685800D02*
D03*
X825500Y673100D02*
D03*
X831850Y660400D02*
D03*
X825500Y647700D02*
D03*
X831850Y635000D02*
D03*
X825500Y622300D02*
D03*
X831850Y609600D02*
D03*
X825500Y596900D02*
D03*
X831850Y584200D02*
D03*
X825500Y571500D02*
D03*
X831850Y558800D02*
D03*
X825500Y546100D02*
D03*
X831850Y533400D02*
D03*
X825500Y520700D02*
D03*
X831850Y508000D02*
D03*
X825500Y495300D02*
D03*
X831850Y482600D02*
D03*
X825500Y469900D02*
D03*
X812800Y1079500D02*
D03*
X819150Y1066800D02*
D03*
X812800Y1054100D02*
D03*
X819150Y1041400D02*
D03*
Y939800D02*
D03*
X812800Y927100D02*
D03*
Y698500D02*
D03*
X819150Y685800D02*
D03*
X812800Y673100D02*
D03*
X819150Y660400D02*
D03*
X812800Y647700D02*
D03*
X819150Y635000D02*
D03*
X812800Y622300D02*
D03*
X819150Y609600D02*
D03*
X812800Y596900D02*
D03*
X819150Y584200D02*
D03*
X812800Y571500D02*
D03*
X819150Y558800D02*
D03*
X812800Y546100D02*
D03*
X819150Y533400D02*
D03*
X812800Y520700D02*
D03*
X819150Y508000D02*
D03*
X812800Y495300D02*
D03*
X819150Y482600D02*
D03*
X812800Y469900D02*
D03*
X800100Y1079500D02*
D03*
X806450Y1066800D02*
D03*
X800100Y1054100D02*
D03*
X806450Y1041400D02*
D03*
Y939800D02*
D03*
X800100Y927100D02*
D03*
Y901700D02*
D03*
X806450Y889000D02*
D03*
X800100Y876300D02*
D03*
X806450Y863600D02*
D03*
X800100Y850900D02*
D03*
Y698500D02*
D03*
X806450Y685800D02*
D03*
X800100Y673100D02*
D03*
X806450Y660400D02*
D03*
X800100Y647700D02*
D03*
X806450Y635000D02*
D03*
X800100Y622300D02*
D03*
X806450Y609600D02*
D03*
X800100Y596900D02*
D03*
X806450Y584200D02*
D03*
X800100Y571500D02*
D03*
X806450Y558800D02*
D03*
X800100Y546100D02*
D03*
X806450Y533400D02*
D03*
X800100Y520700D02*
D03*
X806450Y508000D02*
D03*
X800100Y495300D02*
D03*
X806450Y482600D02*
D03*
X800100Y469900D02*
D03*
X787400Y1079500D02*
D03*
X793750Y1066800D02*
D03*
X787400Y1054100D02*
D03*
X793750Y1041400D02*
D03*
Y939800D02*
D03*
X787400Y927100D02*
D03*
X793750Y914400D02*
D03*
X787400Y901700D02*
D03*
X793750Y889000D02*
D03*
X787400Y876300D02*
D03*
X793750Y863600D02*
D03*
X787400Y850900D02*
D03*
Y698500D02*
D03*
X793750Y685800D02*
D03*
X787400Y673100D02*
D03*
X793750Y660400D02*
D03*
X787400Y647700D02*
D03*
X793750Y635000D02*
D03*
X787400Y622300D02*
D03*
X793750Y609600D02*
D03*
X787400Y596900D02*
D03*
X793750Y584200D02*
D03*
X787400Y571500D02*
D03*
X793750Y558800D02*
D03*
X787400Y546100D02*
D03*
X793750Y533400D02*
D03*
X787400Y520700D02*
D03*
X793750Y508000D02*
D03*
X787400Y495300D02*
D03*
X793750Y482600D02*
D03*
X787400Y469900D02*
D03*
X774700Y1079500D02*
D03*
X781050Y1066800D02*
D03*
X774700Y1054100D02*
D03*
X781050Y1041400D02*
D03*
X774700Y952500D02*
D03*
X781050Y939800D02*
D03*
X774700Y927100D02*
D03*
X781050Y914400D02*
D03*
X774700Y901700D02*
D03*
X781050Y889000D02*
D03*
X774700Y876300D02*
D03*
X781050Y863600D02*
D03*
X774700Y850900D02*
D03*
Y698500D02*
D03*
X781050Y685800D02*
D03*
X774700Y673100D02*
D03*
X781050Y660400D02*
D03*
X774700Y647700D02*
D03*
X781050Y635000D02*
D03*
X774700Y622300D02*
D03*
X781050Y609600D02*
D03*
X774700Y596900D02*
D03*
X781050Y584200D02*
D03*
X774700Y571500D02*
D03*
X781050Y558800D02*
D03*
X774700Y546100D02*
D03*
X781050Y533400D02*
D03*
X774700Y520700D02*
D03*
X781050Y508000D02*
D03*
X774700Y495300D02*
D03*
X781050Y482600D02*
D03*
X774700Y469900D02*
D03*
X762000Y1079500D02*
D03*
X768350Y1066800D02*
D03*
X762000Y1054100D02*
D03*
X768350Y1041400D02*
D03*
X762000Y952500D02*
D03*
X768350Y939800D02*
D03*
X762000Y927100D02*
D03*
X768350Y914400D02*
D03*
X762000Y901700D02*
D03*
X768350Y889000D02*
D03*
X762000Y876300D02*
D03*
X768350Y863600D02*
D03*
X762000Y850900D02*
D03*
Y825500D02*
D03*
Y800100D02*
D03*
Y774700D02*
D03*
Y749300D02*
D03*
Y723900D02*
D03*
Y698500D02*
D03*
X768350Y685800D02*
D03*
X762000Y673100D02*
D03*
X768350Y660400D02*
D03*
X762000Y647700D02*
D03*
X768350Y635000D02*
D03*
X762000Y622300D02*
D03*
X768350Y609600D02*
D03*
X762000Y596900D02*
D03*
X768350Y584200D02*
D03*
X762000Y571500D02*
D03*
X768350Y558800D02*
D03*
X762000Y546100D02*
D03*
X768350Y533400D02*
D03*
X762000Y520700D02*
D03*
X768350Y508000D02*
D03*
X762000Y495300D02*
D03*
X768350Y482600D02*
D03*
X762000Y469900D02*
D03*
X749300Y1079500D02*
D03*
X755650Y1066800D02*
D03*
X749300Y1054100D02*
D03*
X755650Y1041400D02*
D03*
X749300Y1028700D02*
D03*
X755650Y965200D02*
D03*
X749300Y952500D02*
D03*
X755650Y939800D02*
D03*
X749300Y927100D02*
D03*
X755650Y914400D02*
D03*
X749300Y901700D02*
D03*
X755650Y889000D02*
D03*
X749300Y876300D02*
D03*
X755650Y863600D02*
D03*
X749300Y850900D02*
D03*
X755650Y838200D02*
D03*
X749300Y825500D02*
D03*
X755650Y812800D02*
D03*
X749300Y800100D02*
D03*
X755650Y787400D02*
D03*
X749300Y774700D02*
D03*
X755650Y762000D02*
D03*
X749300Y749300D02*
D03*
X755650Y736600D02*
D03*
X749300Y723900D02*
D03*
X755650Y711200D02*
D03*
X749300Y698500D02*
D03*
X755650Y685800D02*
D03*
X749300Y673100D02*
D03*
X755650Y660400D02*
D03*
X749300Y647700D02*
D03*
X755650Y635000D02*
D03*
X749300Y622300D02*
D03*
X755650Y609600D02*
D03*
X749300Y596900D02*
D03*
X755650Y584200D02*
D03*
X749300Y571500D02*
D03*
X755650Y558800D02*
D03*
X749300Y546100D02*
D03*
X755650Y533400D02*
D03*
X749300Y520700D02*
D03*
X755650Y508000D02*
D03*
X749300Y495300D02*
D03*
X755650Y482600D02*
D03*
X749300Y469900D02*
D03*
X736600Y1079500D02*
D03*
X742950Y1066800D02*
D03*
X736600Y1054100D02*
D03*
X742950Y1041400D02*
D03*
X736600Y1028700D02*
D03*
X742950Y1016000D02*
D03*
X736600Y1003300D02*
D03*
X742950Y990600D02*
D03*
X736600Y977900D02*
D03*
X742950Y965200D02*
D03*
X736600Y952500D02*
D03*
X742950Y939800D02*
D03*
X736600Y927100D02*
D03*
X742950Y914400D02*
D03*
X736600Y901700D02*
D03*
X742950Y889000D02*
D03*
X736600Y876300D02*
D03*
X742950Y863600D02*
D03*
X736600Y850900D02*
D03*
X742950Y838200D02*
D03*
X736600Y825500D02*
D03*
X742950Y812800D02*
D03*
X736600Y800100D02*
D03*
X742950Y787400D02*
D03*
X736600Y774700D02*
D03*
X742950Y762000D02*
D03*
X736600Y749300D02*
D03*
X742950Y736600D02*
D03*
X736600Y723900D02*
D03*
X742950Y711200D02*
D03*
X736600Y698500D02*
D03*
X742950Y685800D02*
D03*
X736600Y673100D02*
D03*
X742950Y660400D02*
D03*
X736600Y647700D02*
D03*
X742950Y635000D02*
D03*
X736600Y622300D02*
D03*
X742950Y609600D02*
D03*
X736600Y596900D02*
D03*
X742950Y584200D02*
D03*
X736600Y571500D02*
D03*
X742950Y558800D02*
D03*
X736600Y546100D02*
D03*
X742950Y533400D02*
D03*
X736600Y520700D02*
D03*
X742950Y508000D02*
D03*
X736600Y495300D02*
D03*
X742950Y482600D02*
D03*
X736600Y469900D02*
D03*
X723900Y1079500D02*
D03*
X730250Y1066800D02*
D03*
X723900Y1054100D02*
D03*
X730250Y1041400D02*
D03*
X723900Y1028700D02*
D03*
X730250Y1016000D02*
D03*
X723900Y1003300D02*
D03*
X730250Y990600D02*
D03*
X723900Y977900D02*
D03*
X730250Y965200D02*
D03*
X723900Y952500D02*
D03*
X730250Y939800D02*
D03*
X723900Y927100D02*
D03*
X730250Y914400D02*
D03*
X723900Y901700D02*
D03*
X730250Y889000D02*
D03*
X723900Y876300D02*
D03*
X730250Y863600D02*
D03*
X723900Y850900D02*
D03*
X730250Y838200D02*
D03*
X723900Y825500D02*
D03*
X730250Y812800D02*
D03*
X723900Y800100D02*
D03*
X730250Y787400D02*
D03*
X723900Y774700D02*
D03*
X730250Y762000D02*
D03*
X723900Y749300D02*
D03*
X730250Y736600D02*
D03*
X723900Y723900D02*
D03*
X730250Y711200D02*
D03*
X723900Y698500D02*
D03*
X730250Y685800D02*
D03*
X723900Y673100D02*
D03*
X730250Y660400D02*
D03*
X723900Y647700D02*
D03*
X730250Y635000D02*
D03*
X723900Y622300D02*
D03*
X730250Y609600D02*
D03*
X723900Y596900D02*
D03*
X730250Y584200D02*
D03*
X723900Y571500D02*
D03*
X730250Y558800D02*
D03*
X723900Y546100D02*
D03*
X730250Y533400D02*
D03*
X723900Y520700D02*
D03*
X730250Y508000D02*
D03*
X723900Y495300D02*
D03*
X730250Y482600D02*
D03*
X723900Y469900D02*
D03*
X711200Y1079500D02*
D03*
X717550Y1066800D02*
D03*
X711200Y1054100D02*
D03*
X717550Y1041400D02*
D03*
X711200Y1028700D02*
D03*
X717550Y1016000D02*
D03*
X711200Y1003300D02*
D03*
X717550Y990600D02*
D03*
X711200Y977900D02*
D03*
X717550Y965200D02*
D03*
X711200Y952500D02*
D03*
X717550Y939800D02*
D03*
X711200Y927100D02*
D03*
X717550Y914400D02*
D03*
X711200Y901700D02*
D03*
X717550Y889000D02*
D03*
X711200Y876300D02*
D03*
X717550Y863600D02*
D03*
X711200Y850900D02*
D03*
X717550Y838200D02*
D03*
X711200Y825500D02*
D03*
X717550Y812800D02*
D03*
X711200Y800100D02*
D03*
X717550Y787400D02*
D03*
X711200Y774700D02*
D03*
X717550Y762000D02*
D03*
X711200Y749300D02*
D03*
X717550Y736600D02*
D03*
X711200Y723900D02*
D03*
X717550Y711200D02*
D03*
X711200Y698500D02*
D03*
X717550Y685800D02*
D03*
X711200Y673100D02*
D03*
X717550Y660400D02*
D03*
X711200Y647700D02*
D03*
X717550Y635000D02*
D03*
X711200Y622300D02*
D03*
X717550Y609600D02*
D03*
X711200Y596900D02*
D03*
X717550Y584200D02*
D03*
X711200Y571500D02*
D03*
X717550Y558800D02*
D03*
X711200Y546100D02*
D03*
X717550Y533400D02*
D03*
X711200Y520700D02*
D03*
X717550Y508000D02*
D03*
X711200Y495300D02*
D03*
X717550Y482600D02*
D03*
X711200Y469900D02*
D03*
X698500Y1079500D02*
D03*
X704850Y1066800D02*
D03*
X698500Y1054100D02*
D03*
X704850Y1041400D02*
D03*
X698500Y1028700D02*
D03*
X704850Y1016000D02*
D03*
X698500Y1003300D02*
D03*
X704850Y990600D02*
D03*
X698500Y977900D02*
D03*
X704850Y965200D02*
D03*
X698500Y952500D02*
D03*
X704850Y939800D02*
D03*
X698500Y927100D02*
D03*
X704850Y914400D02*
D03*
X698500Y901700D02*
D03*
X704850Y889000D02*
D03*
X698500Y876300D02*
D03*
X704850Y863600D02*
D03*
X698500Y850900D02*
D03*
X704850Y838200D02*
D03*
X698500Y825500D02*
D03*
X704850Y812800D02*
D03*
X698500Y800100D02*
D03*
X704850Y787400D02*
D03*
X698500Y774700D02*
D03*
X704850Y762000D02*
D03*
X698500Y749300D02*
D03*
X704850Y736600D02*
D03*
X698500Y723900D02*
D03*
X704850Y711200D02*
D03*
X698500Y698500D02*
D03*
X704850Y685800D02*
D03*
X698500Y673100D02*
D03*
X704850Y660400D02*
D03*
X698500Y647700D02*
D03*
X704850Y635000D02*
D03*
X698500Y622300D02*
D03*
X704850Y609600D02*
D03*
X698500Y596900D02*
D03*
X704850Y584200D02*
D03*
X698500Y571500D02*
D03*
X704850Y558800D02*
D03*
X698500Y546100D02*
D03*
X704850Y533400D02*
D03*
X698500Y520700D02*
D03*
X704850Y508000D02*
D03*
X698500Y495300D02*
D03*
X704850Y482600D02*
D03*
X698500Y469900D02*
D03*
X685800Y1079500D02*
D03*
X692150Y1066800D02*
D03*
X685800Y1054100D02*
D03*
X692150Y1041400D02*
D03*
X685800Y1028700D02*
D03*
X692150Y1016000D02*
D03*
X685800Y1003300D02*
D03*
X692150Y990600D02*
D03*
X685800Y977900D02*
D03*
X692150Y965200D02*
D03*
X685800Y952500D02*
D03*
X692150Y939800D02*
D03*
X685800Y927100D02*
D03*
X692150Y914400D02*
D03*
X685800Y901700D02*
D03*
X692150Y889000D02*
D03*
X685800Y876300D02*
D03*
X692150Y863600D02*
D03*
X685800Y850900D02*
D03*
X692150Y838200D02*
D03*
X685800Y825500D02*
D03*
X692150Y812800D02*
D03*
X685800Y800100D02*
D03*
X692150Y787400D02*
D03*
X685800Y774700D02*
D03*
X692150Y762000D02*
D03*
X685800Y749300D02*
D03*
X692150Y736600D02*
D03*
X685800Y723900D02*
D03*
X692150Y711200D02*
D03*
X685800Y698500D02*
D03*
X692150Y685800D02*
D03*
X685800Y673100D02*
D03*
X692150Y660400D02*
D03*
X685800Y647700D02*
D03*
X692150Y635000D02*
D03*
X685800Y622300D02*
D03*
X692150Y609600D02*
D03*
X685800Y596900D02*
D03*
X692150Y584200D02*
D03*
X685800Y571500D02*
D03*
X692150Y558800D02*
D03*
X685800Y546100D02*
D03*
X692150Y533400D02*
D03*
X685800Y520700D02*
D03*
X692150Y508000D02*
D03*
X685800Y495300D02*
D03*
X692150Y482600D02*
D03*
X685800Y469900D02*
D03*
X673100Y1079500D02*
D03*
X679450Y1066800D02*
D03*
X673100Y1054100D02*
D03*
X679450Y1041400D02*
D03*
X673100Y1028700D02*
D03*
X679450Y1016000D02*
D03*
X673100Y1003300D02*
D03*
X679450Y990600D02*
D03*
X673100Y977900D02*
D03*
X679450Y965200D02*
D03*
X673100Y952500D02*
D03*
X679450Y939800D02*
D03*
X673100Y927100D02*
D03*
X679450Y914400D02*
D03*
X673100Y901700D02*
D03*
X679450Y889000D02*
D03*
X673100Y876300D02*
D03*
X679450Y863600D02*
D03*
X673100Y850900D02*
D03*
X679450Y838200D02*
D03*
X673100Y825500D02*
D03*
X679450Y812800D02*
D03*
X673100Y800100D02*
D03*
X679450Y787400D02*
D03*
X673100Y774700D02*
D03*
X679450Y762000D02*
D03*
X673100Y749300D02*
D03*
X679450Y736600D02*
D03*
X673100Y723900D02*
D03*
X679450Y711200D02*
D03*
X673100Y698500D02*
D03*
X679450Y685800D02*
D03*
X673100Y673100D02*
D03*
X679450Y660400D02*
D03*
X673100Y647700D02*
D03*
X679450Y635000D02*
D03*
X673100Y622300D02*
D03*
X679450Y609600D02*
D03*
X673100Y596900D02*
D03*
X679450Y584200D02*
D03*
X673100Y571500D02*
D03*
X679450Y558800D02*
D03*
X673100Y546100D02*
D03*
X679450Y533400D02*
D03*
X673100Y520700D02*
D03*
X679450Y508000D02*
D03*
X673100Y495300D02*
D03*
X679450Y482600D02*
D03*
X673100Y469900D02*
D03*
X660400Y1079500D02*
D03*
X666750Y1066800D02*
D03*
X660400Y1054100D02*
D03*
X666750Y1041400D02*
D03*
X660400Y1028700D02*
D03*
X666750Y1016000D02*
D03*
X660400Y1003300D02*
D03*
X666750Y990600D02*
D03*
X660400Y977900D02*
D03*
X666750Y965200D02*
D03*
X660400Y952500D02*
D03*
X666750Y939800D02*
D03*
X660400Y927100D02*
D03*
X666750Y914400D02*
D03*
X660400Y901700D02*
D03*
X666750Y889000D02*
D03*
X660400Y876300D02*
D03*
X666750Y863600D02*
D03*
X660400Y850900D02*
D03*
X666750Y838200D02*
D03*
X660400Y825500D02*
D03*
X666750Y812800D02*
D03*
X660400Y800100D02*
D03*
X666750Y787400D02*
D03*
X660400Y774700D02*
D03*
X666750Y762000D02*
D03*
X660400Y749300D02*
D03*
X666750Y736600D02*
D03*
X660400Y723900D02*
D03*
X666750Y711200D02*
D03*
X660400Y698500D02*
D03*
X666750Y685800D02*
D03*
X660400Y673100D02*
D03*
X666750Y660400D02*
D03*
X660400Y647700D02*
D03*
X666750Y635000D02*
D03*
X660400Y622300D02*
D03*
X666750Y609600D02*
D03*
X660400Y596900D02*
D03*
X666750Y584200D02*
D03*
X660400Y571500D02*
D03*
X666750Y558800D02*
D03*
X660400Y546100D02*
D03*
X666750Y533400D02*
D03*
X660400Y520700D02*
D03*
X666750Y508000D02*
D03*
X660400Y495300D02*
D03*
X666750Y482600D02*
D03*
X660400Y469900D02*
D03*
X654050Y1066800D02*
D03*
X647700Y1054100D02*
D03*
X654050Y1041400D02*
D03*
X647700Y1028700D02*
D03*
X654050Y1016000D02*
D03*
X647700Y1003300D02*
D03*
X654050Y990600D02*
D03*
X647700Y977900D02*
D03*
X654050Y965200D02*
D03*
X647700Y952500D02*
D03*
X654050Y939800D02*
D03*
X647700Y927100D02*
D03*
X654050Y914400D02*
D03*
X647700Y901700D02*
D03*
X654050Y889000D02*
D03*
X647700Y876300D02*
D03*
X654050Y863600D02*
D03*
X647700Y850900D02*
D03*
X654050Y838200D02*
D03*
X647700Y825500D02*
D03*
X654050Y812800D02*
D03*
X647700Y800100D02*
D03*
X654050Y787400D02*
D03*
X647700Y774700D02*
D03*
X654050Y762000D02*
D03*
X647700Y749300D02*
D03*
X654050Y736600D02*
D03*
X647700Y723900D02*
D03*
X654050Y711200D02*
D03*
X647700Y698500D02*
D03*
X654050Y685800D02*
D03*
X647700Y673100D02*
D03*
X654050Y660400D02*
D03*
X647700Y647700D02*
D03*
X654050Y635000D02*
D03*
X647700Y622300D02*
D03*
X654050Y609600D02*
D03*
X647700Y596900D02*
D03*
X654050Y584200D02*
D03*
X647700Y571500D02*
D03*
X654050Y558800D02*
D03*
X647700Y546100D02*
D03*
X654050Y533400D02*
D03*
X647700Y520700D02*
D03*
X654050Y508000D02*
D03*
X647700Y495300D02*
D03*
X654050Y482600D02*
D03*
X647700Y469900D02*
D03*
X635000Y1054100D02*
D03*
X641350Y1041400D02*
D03*
X635000Y1028700D02*
D03*
X641350Y1016000D02*
D03*
X635000Y1003300D02*
D03*
X641350Y990600D02*
D03*
X635000Y977900D02*
D03*
X641350Y965200D02*
D03*
X635000Y952500D02*
D03*
X641350Y939800D02*
D03*
X635000Y927100D02*
D03*
X641350Y914400D02*
D03*
X635000Y901700D02*
D03*
X641350Y889000D02*
D03*
X635000Y876300D02*
D03*
X641350Y863600D02*
D03*
X635000Y850900D02*
D03*
X641350Y838200D02*
D03*
X635000Y825500D02*
D03*
X641350Y812800D02*
D03*
X635000Y800100D02*
D03*
X641350Y787400D02*
D03*
X635000Y774700D02*
D03*
X641350Y762000D02*
D03*
X635000Y749300D02*
D03*
X641350Y736600D02*
D03*
X635000Y723900D02*
D03*
X641350Y711200D02*
D03*
X635000Y698500D02*
D03*
X641350Y685800D02*
D03*
X635000Y673100D02*
D03*
X641350Y660400D02*
D03*
X635000Y647700D02*
D03*
X641350Y635000D02*
D03*
X635000Y622300D02*
D03*
X641350Y609600D02*
D03*
X635000Y596900D02*
D03*
X641350Y584200D02*
D03*
X635000Y571500D02*
D03*
X641350Y558800D02*
D03*
X635000Y546100D02*
D03*
X641350Y533400D02*
D03*
X635000Y520700D02*
D03*
X641350Y508000D02*
D03*
X635000Y495300D02*
D03*
X641350Y482600D02*
D03*
X628650Y1041400D02*
D03*
X622300Y1028700D02*
D03*
X628650Y1016000D02*
D03*
X622300Y1003300D02*
D03*
X628650Y990600D02*
D03*
X622300Y977900D02*
D03*
X628650Y965200D02*
D03*
X622300Y952500D02*
D03*
X628650Y939800D02*
D03*
X622300Y927100D02*
D03*
X628650Y914400D02*
D03*
X622300Y901700D02*
D03*
X628650Y889000D02*
D03*
X622300Y876300D02*
D03*
X628650Y863600D02*
D03*
X622300Y850900D02*
D03*
X628650Y838200D02*
D03*
X622300Y825500D02*
D03*
X628650Y812800D02*
D03*
X622300Y800100D02*
D03*
X628650Y787400D02*
D03*
X622300Y774700D02*
D03*
X628650Y762000D02*
D03*
X622300Y749300D02*
D03*
X628650Y736600D02*
D03*
X622300Y723900D02*
D03*
X628650Y711200D02*
D03*
X622300Y698500D02*
D03*
X628650Y685800D02*
D03*
X622300Y673100D02*
D03*
X628650Y660400D02*
D03*
X622300Y647700D02*
D03*
X628650Y635000D02*
D03*
X622300Y622300D02*
D03*
X628650Y609600D02*
D03*
X622300Y596900D02*
D03*
X628650Y584200D02*
D03*
X622300Y571500D02*
D03*
X628650Y558800D02*
D03*
X622300Y546100D02*
D03*
X628650Y533400D02*
D03*
X622300Y520700D02*
D03*
X628650Y508000D02*
D03*
X622300Y495300D02*
D03*
X628650Y482600D02*
D03*
X1332230Y748030D02*
D03*
X819150Y908050D02*
D03*
X960120Y798830D02*
D03*
M02*
